<svg viewBox="0 0 100 100" fill="none" xmlns="http://www.w3.org/2000/svg">
  <defs>
    <linearGradient id="teddy-fur" x1="0" y1="0" x2="100" y2="100">
      <stop offset="0%" stop-color="#EF4444" />
      <stop offset="100%" stop-color="#DC2626" />
    </linearGradient>
    <linearGradient id="teddy-snout" x1="0" y1="0" x2="100" y2="100">
      <stop offset="0%" stop-color="#FFFBEB" />
      <stop offset="100%" stop-color="#FDE68A" />
    </linearGradient>
  </defs>
  <g>
    <circle cx="22" cy="28" r="14" fill="url(#teddy-fur)" />
    <circle cx="78" cy="28" r="14" fill="url(#teddy-fur)" />
    <circle cx="22" cy="28" r="7" fill="#FCA5A5" opacity="0.9" />
    <circle cx="78" cy="28" r="7" fill="#FCA5A5" opacity="0.9" />
    <ellipse cx="50" cy="55" rx="38" ry="32" fill="url(#teddy-fur)" />
    <ellipse cx="23" cy="58" rx="6" ry="4" fill="#F87171" opacity="0.6" />
    <ellipse cx="77" cy="58" rx="6" ry="4" fill="#F87171" opacity="0.6" />
    <ellipse cx="50" cy="65" rx="16" ry="13" fill="url(#teddy-snout)" />
    <ellipse cx="50" cy="59" rx="7" ry="5" fill="#451A03" />
    <ellipse cx="52" cy="57.5" rx="2" ry="1.5" fill="#FFFFFF" opacity="0.7" transform="rotate(-15 52 57)" />
    <path d="M50 64 V 68 M44 67 Q 47 73 50 68 Q 53 73 56 67" stroke="#451A03" stroke-width="2.5" stroke-linecap="round" stroke-linejoin="round" />
    <circle cx="33" cy="45" r="5" fill="#451A03" />
    <circle cx="31.5" cy="43.5" r="2" fill="#FFFFFF" />
    <circle cx="34.5" cy="46.5" r="0.8" fill="#FFFFFF" />
    <circle cx="67" cy="45" r="5" fill="#451A03" />
    <circle cx="65.5" cy="43.5" r="2" fill="#FFFFFF" />
    <circle cx="68.5" cy="46.5" r="0.8" fill="#FFFFFF" />
  </g>
</svg>
